<?xml version="1.0" standalone="no"?><!DOCTYPE svg PUBLIC "-//W3C//DTD SVG 1.1//EN" "http://www.w3.org/Graphics/SVG/1.1/DTD/svg11.dtd"><svg width="200" height="200" viewBox="0 0 200 200" version="1.1" xmlns="http://www.w3.org/2000/svg" xmlns:xlink="http://www.w3.org/1999/xlink"><defs><style type="text/css"><![CDATA[
@font-face {
  font-family: "ifont";
  src: url("//at.alicdn.com/t/font_1442373896_4754455.eot?#iefix") format("embedded-opentype"), url("//at.alicdn.com/t/font_1442373896_4754455.woff") format("woff"), url("//at.alicdn.com/t/font_1442373896_4754455.ttf") format("truetype"), url("//at.alicdn.com/t/font_1442373896_4754455.svg#ifont") format("svg");
}

]]></style></defs><g class="transform-group"><g transform="scale(0.1953125, 0.1953125)"><path d="M901.920618 465.785468c-50.993571 0-94.522533 32.698367-110.688942 78.273953L702.244627 544.059421c1.764013-10.590222 2.890616-21.423121 2.890616-32.694527 0-72.177856-40.480145-134.923579-99.898281-166.857822l34.099901-112.776268c8.829281 2.126492 18.1347 3.327588 27.724265 3.327588 64.833817 0 117.472367-52.597848 117.472367-117.589097C784.532727 52.594008 731.894177 0 667.06036 0c-64.911381 0-117.509229 52.594008-117.509229 117.470063 0 49.305587 30.248562 91.349307 73.177745 108.842756l-33.419485 110.692013c-22.548956-9.588797-47.462473-14.807112-73.540224-14.807112-49.18732 0-93.841349 18.658451-127.540374 49.309426L213.348053 196.583401l-1.886119 2.008226c19.940183-21.103648 32.256788-49.588197 32.256788-81.003297 0-64.872983-52.517212-117.470063-117.470063-117.470063-64.913685 0-117.511533 52.59708-117.511533 117.470063 0 65.034255 52.59708 117.592169 117.511533 117.592169 31.412796 0 59.898881-12.358075 80.921125-32.335888l-6.179038 6.056931 174.960609 174.879973c-30.729308 33.66293-49.506025 78.47516-49.506025 127.661712 0 43.008283 14.401627 82.685138 38.593258 114.501114l-149.845117 120.999625c-21.503757-28.044506-55.285722-46.218372-93.357532-46.218372-64.874519 0-117.430897 52.719186-117.430897 117.592169 0 64.833049 52.556378 117.470063 117.430897 117.470063 64.872983 0 117.549163-52.637014 117.549163-117.470063 0-20.541499-5.335813-39.878062-14.602834-56.68956l151.369526-122.203792c34.584487 37.633303 84.29095 61.384123 139.618142 61.384123 28.082136 0 54.602234-6.057699 78.553492-17.091805l52.716114 119.514383c-35.585143 20.222026-59.497236 58.335306-59.497236 102.106945 0 64.912149 52.637014 117.549163 117.592169 117.549163 64.872983 0 117.388659-52.637014 117.388659-117.549163 0-64.833049-52.516444-117.513069-117.388659-117.513069-15.047485 0-29.248673 2.929782-42.446133 7.903885l-52.798286-120.034294c42.807844-24.554878 75.182898-65.518073 88.46253-114.221576l88.222926 0c-1.405374 7.018422-1.96522 14.241123-1.96522 21.743362 0 64.872983 52.557914 117.509997 117.387123 117.509997 64.995089 0 117.596009-52.637014 117.596009-117.509997C1019.508947 518.383316 966.994039 465.785468 901.920618 465.785468L901.920618 465.785468zM901.920618 465.785468" fill="#7b7b80"></path></g></g></svg>