<?xml version="1.0" standalone="no"?><!DOCTYPE svg PUBLIC "-//W3C//DTD SVG 1.1//EN" "http://www.w3.org/Graphics/SVG/1.1/DTD/svg11.dtd"><svg width="200" height="200" viewBox="0 0 200 200" version="1.1" xmlns="http://www.w3.org/2000/svg" xmlns:xlink="http://www.w3.org/1999/xlink"><defs><style type="text/css"><![CDATA[
@font-face {
  font-family: "ifont";
  src: url("//at.alicdn.com/t/font_1442373896_4754455.eot?#iefix") format("embedded-opentype"), url("//at.alicdn.com/t/font_1442373896_4754455.woff") format("woff"), url("//at.alicdn.com/t/font_1442373896_4754455.ttf") format("truetype"), url("//at.alicdn.com/t/font_1442373896_4754455.svg#ifont") format("svg");
}

]]></style></defs><g class="transform-group"><g transform="scale(0.1953125, 0.1953125)"><path d="M6.67257 966.431052l1010.654861 0L1017.32743 1024 6.67257 1024 6.67257 966.431052zM77.034617 403.534674l127.930995 0 0 562.896378-127.930995 0L77.034617 403.534674zM192.172512 403.534674l454.155032 0 0 127.930995L192.172512 531.465669 192.172512 403.534674zM582.362047 275.603679l127.930995 0 0 690.827373-127.930995 0L582.362047 275.603679zM639.930995 275.603679l262.25854 0 0 127.930995L639.930995 403.534674 639.930995 275.603679zM825.430938 275.603679l127.930995 0 0 690.827373-127.930995 0L825.430938 275.603679zM198.569062 147.672684l57.568948 0 0 262.25854L198.569062 409.931224 198.569062 147.672684zM454.431052 198.845082 512 198.845082l0 204.689592L454.431052 403.534674 454.431052 198.845082zM326.500057 461.103622l127.930995 0 0 505.32743-127.930995 0L326.500057 461.103622zM217.758711 141.276134c0 0 19.189649-57.568948 51.172398-89.551697 6.39655-6.39655 63.965498-57.568948 134.327545-51.172398 25.586199 6.39655 70.362047 19.189649 172.706843 0 6.39655 0-19.189649 31.982749-51.172398 38.379299C512 45.327888 492.810351 64.517537 454.431052 83.707187S377.672455 90.103736 339.293157 90.103736C307.310408 90.103736 217.758711 141.276134 217.758711 141.276134zM473.620701 186.051983c0 0 12.7931-51.172398 51.172398-76.758597 12.7931-12.7931 31.982749-31.982749 70.362047-57.568948 19.189649-12.7931 51.172398-19.189649 76.758597-19.189649s76.758597 19.189649 115.137896 19.189649c51.172398-6.39655 76.758597 25.586199 76.758597 31.982749-6.39655 6.39655-31.982749-19.189649-76.758597 0s-25.586199 25.586199-70.362047 38.379299C678.310294 128.483035 646.327545 134.879585 607.948246 141.276134S473.620701 186.051983 473.620701 186.051983z" fill="#7b7b80"></path></g></g></svg>